<svg xmlns="http://www.w3.org/2000/svg" id="Layer_2" data-name="Layer 2" viewBox="0 0 225.11 302.43"><defs><style>.cls-1,.cls-3{fill:#8cc078;stroke-width:0}.cls-3{fill:#117541}</style></defs><g id="Layer_1-2" data-name="Layer 1"><path d="M132.84 114.54c0 7.13-3.6 13.4-9.09 17.11-.81.56-1.68 1.06-2.57 1.49a20.54 20.54 0 0 1-9 2.05 20.54 20.54 0 0 1-11.58-3.54c-5.47-3.72-9.08-9.98-9.08-17.11 0-11.41 9.25-20.65 20.65-20.65s20.65 9.25 20.65 20.65Zm34.62 117.36c-14.45-3.3-33.21-6.22-55.18-6.23-22.06 0-40.89 2.92-55.38 6.23 3.17-1.44 5.63-2.89 7.27-3.93 8.32-5.27 13.4-11.38 17.28-16.13 3.33-4.08 5.64-7.59 7.27-10.17.3-.47.57-.89.82-1.29.45-.74.89-1.42 1.29-2.08 2.52-4.06 4.17-6.93 5.68-10.83 1.28-3.29 5.8-14.94 2.01-24.93-.58-1.52-1.22-2.69-1.93-4-.66-1.21-1.79-3.17-3.43-5.41a47.413 47.413 0 0 0-5.41-6.17c1.99-.06 5.36.09 9.16 1.61 4.37 1.73 7.16 4.4 8.54 5.93l.51-7.49c2.07-2.5 4.13-5 6.2-7.49 2.07 2.5 4.13 5 6.2 7.49l.51 7.49a23.18 23.18 0 0 1 8.54-5.93c3.8-1.51 7.17-1.66 9.15-1.61a47.65 47.65 0 0 0-8.83 11.58c-.71 1.31-1.35 2.49-1.93 4-3.79 9.99.72 21.64 2.01 24.93 1.51 3.91 3.16 6.77 5.68 10.83.41.66.84 1.35 1.29 2.08.25.4.52.83.82 1.29 1.63 2.59 3.95 6.1 7.27 10.17 3.88 4.75 8.96 10.86 17.28 16.13a60.18 60.18 0 0 0 7.27 3.93Z" class="cls-3"/><path d="M83.66 221.61c4.05-3.99 8.39-8.94 12.47-15 10.89-16.16 14.62-32.28 16.04-42.65 2.18 11.42 6.76 27.05 17.01 43.04 3.66 5.71 7.5 10.63 11.22 14.81-7.8-1.45-17.3-2.62-28.15-2.67-11.02-.05-20.68 1.05-28.58 2.47Z" class="cls-1"/><path id="_ffffffff" d="M61.61 137.69c5.55-3.65 13.01-2.96 18.43.55-1.55-.11-3.19-.38-4.66.34-3.19 1.39-5.64 3.98-8.21 6.24-5.14 4.89-10.94 9.29-17.64 11.78-6.37 2.46-13.3 3.17-20.08 2.85 5.31-2.86 10.58-6.49 13.55-11.89-2.35-1.84-5.75-2.23-8.43-.93-3.73 1.73-6.54 4.86-10.14 6.81-5.51 3.48-12.81 2.72-18.13-.74 1.44.08 2.97.45 4.35-.18 3.33-1.38 5.86-4.05 8.52-6.39 5.05-4.82 10.75-9.15 17.32-11.66 4.78-1.89 9.9-2.79 15.01-3 1.72-.06 3.47-.16 5.17.2-5.27 2.74-10.41 6.42-13.33 11.72 2.27 1.76 5.49 2.23 8.13 1.06 3.77-1.64 6.59-4.77 10.14-6.77Z" class="cls-1" data-name="#ffffffff"/><path id="_3db049ff" d="M34.09 127.83c17.07-6.18 36.93-4.11 52.25 5.66-2.17 3.53-4.48 6.99-6.89 10.35-6.81 8.39-15.78 15.08-25.94 18.82-17.35 6.72-37.81 4.82-53.51-5.19 2.03-3.3 4.23-6.51 6.41-9.71 7.12-9.05 16.77-16.19 27.69-19.93m27.52 9.86c-3.55 1.99-6.37 5.13-10.14 6.77-2.64 1.17-5.86.71-8.13-1.06 2.92-5.3 8.06-8.97 13.33-11.72-1.7-.36-3.45-.26-5.17-.2-5.11.2-10.24 1.11-15.01 3-6.57 2.51-12.26 6.85-17.32 11.66-2.66 2.34-5.19 5.01-8.52 6.39-1.38.63-2.91.27-4.35.18 5.32 3.46 12.62 4.22 18.13.74 3.6-1.95 6.41-5.08 10.14-6.81 2.68-1.29 6.09-.9 8.43.93-2.97 5.4-8.24 9.02-13.55 11.89 6.78.32 13.71-.39 20.08-2.85 6.7-2.49 12.5-6.89 17.64-11.78 2.57-2.27 5.02-4.86 8.21-6.24 1.46-.72 3.11-.45 4.66-.34-5.43-3.52-12.89-4.2-18.43-.55Z" class="cls-3" data-name="#3db049ff"/><path id="_ffffffff-2" d="M173.64 144.46c2.64 1.17 5.86.71 8.13-1.06-2.92-5.3-8.06-8.97-13.33-11.72 1.7-.36 3.45-.26 5.17-.2 5.11.2 10.24 1.11 15.01 3 6.57 2.51 12.26 6.85 17.32 11.66 2.66 2.34 5.19 5.01 8.52 6.39 1.38.63 2.91.27 4.35.18-5.32 3.46-12.62 4.22-18.13.74-3.6-1.95-6.41-5.08-10.14-6.81-2.68-1.29-6.09-.9-8.43.93 2.97 5.4 8.24 9.02 13.55 11.89-6.78.32-13.71-.39-20.08-2.85-6.7-2.49-12.5-6.89-17.64-11.78-2.57-2.27-5.02-4.86-8.21-6.24-1.46-.72-3.11-.45-4.66-.34 5.43-3.52 12.89-4.2 18.43-.55 3.55 1.99 6.37 5.13 10.14 6.77Z" class="cls-1" data-name="#ffffffff"/><path id="_3db049ff-2" d="M191.01 127.83c10.92 3.74 20.57 10.88 27.69 19.93 2.18 3.2 4.37 6.41 6.41 9.71-15.71 10.02-36.16 11.91-53.51 5.19-10.16-3.74-19.14-10.43-25.94-18.82-2.41-3.37-4.71-6.82-6.89-10.35 15.32-9.77 35.18-11.84 52.25-5.66m-45.95 10.41c1.55-.11 3.19-.38 4.66.34 3.19 1.39 5.64 3.98 8.21 6.24 5.14 4.89 10.94 9.29 17.64 11.78 6.37 2.46 13.3 3.17 20.08 2.85-5.31-2.86-10.58-6.49-13.55-11.89 2.35-1.84 5.75-2.23 8.43-.93 3.73 1.73 6.54 4.86 10.14 6.81 5.51 3.48 12.81 2.72 18.13-.74-1.44.08-2.97.45-4.35-.18-3.33-1.38-5.86-4.05-8.52-6.39-5.05-4.82-10.75-9.15-17.32-11.66-4.78-1.89-9.9-2.79-15.01-3-1.72-.06-3.47-.16-5.17.2 5.27 2.74 10.41 6.42 13.33 11.72-2.27 1.76-5.49 2.23-8.13 1.06-3.77-1.64-6.59-4.77-10.14-6.77-5.55-3.65-13.01-2.96-18.43.55Z" class="cls-3" data-name="#3db049ff"/><path id="_ffffffff-3" d="M67.2 88.22c6.36 1.89 10.65 8.04 11.45 14.46-.92-1.26-1.77-2.69-3.26-3.34-3.12-1.55-6.67-1.75-10.06-2.26-7.05-.78-14.15-2.38-20.37-5.9-5.99-3.29-10.99-8.13-15.12-13.52 5.61 2.22 11.78 3.91 17.82 2.71-.11-2.98-2-5.83-4.72-7.05-3.73-1.73-7.93-1.87-11.74-3.37-6.21-1.97-10.33-8.04-11.11-14.34.87 1.16 1.57 2.56 2.94 3.21 3.2 1.66 6.88 1.88 10.38 2.4 6.94.76 13.92 2.33 20.07 5.73 4.52 2.44 8.51 5.77 11.96 9.55 1.16 1.28 2.36 2.55 3.18 4.09-5.49-2.26-11.61-3.83-17.55-2.65.11 2.87 1.83 5.63 4.43 6.9 3.68 1.83 7.89 1.96 11.71 3.4Z" class="cls-1" data-name="#ffffffff"/><path id="_3db049ff-3" d="M57.02 60.82c15.72 9.08 26.93 25.6 29.33 43.62-4.1.61-8.23 1.08-12.36 1.4-10.8.2-21.7-2.35-31.11-7.72-16.32-8.95-28.04-25.81-30.5-44.28 3.84-.57 7.7-.96 11.55-1.36 11.51-.38 23.18 2.4 33.08 8.34m10.18 27.4c-3.81-1.43-8.03-1.57-11.71-3.4-2.6-1.27-4.31-4.02-4.43-6.9 5.94-1.18 12.06.38 17.55 2.65-.82-1.53-2.02-2.81-3.18-4.09-3.45-3.78-7.44-7.12-11.96-9.55-6.15-3.4-13.13-4.97-20.07-5.73-3.5-.53-7.17-.75-10.38-2.4-1.37-.65-2.08-2.05-2.94-3.21.79 6.3 4.9 12.37 11.11 14.34 3.81 1.5 8.01 1.64 11.74 3.37 2.72 1.22 4.61 4.07 4.72 7.05-6.04 1.21-12.21-.49-17.82-2.71 4.13 5.39 9.13 10.23 15.12 13.52 6.22 3.52 13.32 5.12 20.37 5.9 3.39.51 6.95.71 10.06 2.26 1.49.66 2.34 2.09 3.26 3.34-.8-6.42-5.09-12.56-11.45-14.46Z" class="cls-3" data-name="#3db049ff"/><path id="_ffffffff-4" d="M169.61 84.82c2.6-1.27 4.31-4.02 4.43-6.9-5.94-1.18-12.06.38-17.55 2.65.82-1.53 2.02-2.81 3.18-4.09 3.45-3.78 7.44-7.12 11.96-9.55 6.15-3.4 13.13-4.97 20.07-5.73 3.5-.53 7.17-.75 10.38-2.4 1.37-.65 2.08-2.05 2.94-3.21-.79 6.3-4.9 12.37-11.11 14.34-3.81 1.5-8.01 1.64-11.74 3.37-2.72 1.22-4.61 4.07-4.72 7.05 6.04 1.21 12.21-.49 17.82-2.71-4.13 5.39-9.13 10.23-15.12 13.52-6.22 3.52-13.32 5.12-20.37 5.9-3.39.51-6.95.71-10.06 2.26-1.49.66-2.34 2.09-3.26 3.34.8-6.42 5.09-12.56 11.45-14.46 3.81-1.43 8.03-1.57 11.71-3.4Z" class="cls-1" data-name="#ffffffff"/><path id="_3db049ff-4" d="M168.09 60.82c9.9-5.94 21.57-8.72 33.08-8.34 3.85.4 7.72.78 11.55 1.36-2.46 18.47-14.18 35.33-30.5 44.28-9.4 5.37-20.3 7.92-31.11 7.72-4.13-.32-8.26-.79-12.36-1.4 2.4-18.01 13.61-34.54 29.33-43.62m-21.64 41.86c.92-1.26 1.77-2.69 3.26-3.34 3.12-1.55 6.67-1.75 10.06-2.26 7.05-.78 14.15-2.38 20.37-5.9 5.99-3.29 10.99-8.13 15.12-13.52-5.61 2.22-11.78 3.91-17.82 2.71.11-2.98 2-5.83 4.72-7.05 3.73-1.73 7.93-1.87 11.74-3.37 6.21-1.97 10.33-8.04 11.11-14.34-.87 1.16-1.57 2.56-2.94 3.21-3.2 1.66-6.88 1.88-10.38 2.4-6.94.76-13.92 2.33-20.07 5.73-4.52 2.44-8.51 5.77-11.96 9.55-1.16 1.28-2.36 2.55-3.18 4.09 5.49-2.26 11.61-3.83 17.55-2.65-.11 2.87-1.83 5.63-4.43 6.9-3.68 1.83-7.89 1.96-11.71 3.4-6.36 1.89-10.65 8.04-11.45 14.46Z" class="cls-3" data-name="#3db049ff"/><path id="_ffffffff-5" d="M114.51 64.63c2.09 6.3-.5 13.33-5.31 17.66.51-1.47 1.19-2.99.88-4.59-.51-3.44-2.38-6.47-3.91-9.55-3.39-6.23-6.14-12.97-6.81-20.09-.73-6.79.38-13.67 2.45-20.14 1.39 5.87 3.53 11.9 7.97 16.16 2.38-1.79 3.64-4.98 3.08-7.9-.71-4.05-3-7.58-3.95-11.56-1.93-6.22.69-13.07 5.41-17.32-.45 1.37-1.2 2.76-.95 4.25.47 3.57 2.4 6.71 3.96 9.89 3.34 6.13 6.05 12.75 6.78 19.74.59 5.1.14 10.29-.99 15.28-.39 1.68-.75 3.39-1.54 4.94-1.29-5.8-3.5-11.71-7.87-15.91-2.29 1.74-3.57 4.72-3.13 7.57.61 4.07 2.9 7.6 3.91 11.55Z" class="cls-1" data-name="#ffffffff"/><path id="_3db049ff-5" d="M131.15 40.61c1.55 18.09-5.59 36.73-19 49a182.06 182.06 0 0 1-8.22-9.33c-6.34-8.75-10.48-19.15-11.46-29.93-2-18.5 5.13-37.77 18.87-50.35 2.67 2.82 5.19 5.77 7.72 8.7 6.9 9.22 11.29 20.38 12.08 31.9m-16.65 24.03c-1.01-3.95-3.3-7.48-3.91-11.55-.45-2.85.83-5.84 3.13-7.57 4.36 4.19 6.58 10.11 7.87 15.91.79-1.55 1.15-3.26 1.54-4.94 1.13-4.99 1.58-10.18.99-15.28-.73-6.99-3.44-13.62-6.78-19.74-1.57-3.17-3.49-6.31-3.96-9.89-.25-1.49.49-2.88.95-4.25-4.72 4.25-7.34 11.1-5.41 17.32.95 3.98 3.24 7.51 3.95 11.56.56 2.93-.7 6.11-3.08 7.9-4.44-4.27-6.58-10.29-7.97-16.16-2.06 6.47-3.17 13.34-2.45 20.14.67 7.12 3.42 13.86 6.81 20.09 1.52 3.07 3.39 6.1 3.91 9.55.31 1.6-.37 3.12-.88 4.59 4.8-4.33 7.39-11.36 5.31-17.66Z" class="cls-3" data-name="#3db049ff"/><path d="m45.26 259.91 2.4 11.47c-1.65.35-2.48.52-4.13.89-2.41-10.79-3.62-16.19-6.03-26.98 1.8-.4 2.69-.6 4.49-.97.96 4.6 1.44 6.89 2.41 11.49 2.1-.44 3.14-.65 5.25-1.05-.89-4.61-1.33-6.92-2.22-11.53 1.8-.35 2.71-.51 4.51-.84 1.94 10.89 2.91 16.33 4.86 27.22-1.66.3-2.49.45-4.15.77-.89-4.6-1.33-6.9-2.21-11.5-2.07.4-3.11.61-5.18 1.04Zm19.41 8.4c-1.67.25-2.5.39-4.16.66-1.81-10.91-2.72-16.36-4.53-27.27 1.81-.3 2.72-.44 4.53-.72 1.66 10.93 2.5 16.4 4.16 27.33Zm7.9-1.1c-1.67.21-2.5.32-4.17.56-1.53-10.96-2.3-16.44-3.83-27.4 2.6-.36 3.91-.53 6.52-.85 2.64 7.69 3.92 11.55 6.37 19.28.68-8.07 1.07-12.11 1.95-20.17 2.51-.24 3.77-.35 6.29-.54.85 11.03 1.27 16.55 2.12 27.59-1.68.13-2.51.2-4.19.35-.63-6.93-.94-10.39-1.56-17.32-.91 7.06-1.32 10.6-2.07 17.66-1.35.14-2.02.21-3.36.36-2.4-6.71-3.64-10.05-6.22-16.72.87 6.88 1.3 10.32 2.17 17.21Zm23.82-8.45c-.29 2.56-.44 3.84-.71 6.4-1.75.09-2.62.14-4.37.26.96-9.31 2.07-18.61 3.34-27.88 2.51-.13 3.77-.18 6.28-.26a832 832 0 0 1 5.54 27.52c-1.77.03-2.65.05-4.41.11-.47-2.53-.71-3.79-1.2-6.32-1.79.06-2.68.1-4.47.18Zm1.64-15.05c-.49 4.38-.72 6.58-1.16 10.96 1.28-.06 1.93-.09 3.21-.13-.8-4.33-1.21-6.5-2.05-10.83Zm17.99 21.42c-1.85-.03-3.41-.67-4.72-1.96-1.3-1.29-1.97-2.83-1.99-4.66-.05-6.04-.07-9.06-.11-15.09-.01-1.84.67-3.41 2.08-4.7 1.41-1.29 3.13-1.93 5.13-1.9 2.02.03 3.72.72 5.08 2.05 1.36 1.33 1.99 2.92 1.93 4.74-.04 1.26-.07 1.89-.11 3.15-1.84-.06-2.76-.09-4.61-.13.03-1.3.04-1.95.07-3.24.01-.66-.23-1.24-.73-1.71-.5-.48-1.11-.73-1.83-.74-.72 0-1.33.22-1.83.69-.51.47-.76 1.03-.76 1.69-.03 6.05-.05 9.08-.09 15.14 0 .66.23 1.23.7 1.69.47.47 1.04.7 1.72.71.68 0 1.26-.21 1.75-.67.49-.45.74-1.01.76-1.67.03-1.53.05-2.29.08-3.82 1.8.04 2.7.06 4.49.13-.05 1.54-.08 2.32-.14 3.86-.06 1.84-.78 3.37-2.13 4.61-1.35 1.24-2.92 1.84-4.74 1.82Zm14.99-11.53-.7 11.7c-1.68-.1-2.52-.14-4.2-.22.51-11.05.76-16.57 1.27-27.62 1.83.08 2.74.13 4.57.24l-.7 11.72c2.13.13 3.19.2 5.32.36.35-4.68.53-7.02.89-11.7 1.82.14 2.74.21 4.56.38-.98 11.01-1.48 16.52-2.46 27.54-1.67-.15-2.51-.22-4.19-.35.35-4.67.53-7.01.89-11.68-2.1-.16-3.15-.23-5.25-.36Zm18.16 7c-.71 2.48-1.06 3.71-1.76 6.19-1.74-.2-2.61-.29-4.35-.47 2.48-9.02 5.12-18.02 7.9-26.95 2.5.29 3.75.45 6.25.78.46 9.34.78 18.71.94 28.06-1.75-.26-2.63-.39-4.38-.63-.05-2.57-.08-3.86-.14-6.43-1.78-.24-2.67-.35-4.45-.56Zm4.1-14.57c-1.2 4.24-1.79 6.37-2.95 10.62 1.28.15 1.92.23 3.2.4-.08-4.41-.12-6.61-.24-11.02Zm19.68 24.77c-4.51-.9-6.77-1.31-11.31-2.04 1.77-10.92 2.65-16.37 4.41-27.29 1.81.29 2.72.45 4.52.76-1.63 9.26-2.44 13.89-4.06 23.14 2.9.51 4.35.78 7.25 1.36-.33 1.63-.49 2.44-.81 4.07Zm6.97 1.47c-1.65-.37-2.48-.55-4.13-.89 2.27-10.82 3.4-16.24 5.67-27.06 1.8.38 2.7.57 4.49.97-2.41 10.79-3.62 16.19-6.03 26.98Z" style="fill:#0e7441;stroke-width:0"/><path d="M59.96 301.52c-1.24.26-1.86.4-3.1.67-1.81-8.09-2.71-12.14-4.52-20.23 1.34-.3 2.01-.44 3.35-.73 1.71 8.12 2.56 12.17 4.27 20.29Zm2.5-21.65c2.8 5.16 4.15 7.75 6.77 12.97l-2.3-13.76c1.35-.23 2.02-.33 3.38-.54 1.26 8.2 1.9 12.31 3.16 20.51-1.34.21-2.01.31-3.35.54-2.59-4.95-3.94-7.42-6.71-12.31.97 5.23 1.46 7.84 2.43 13.06-1.24.23-1.87.35-3.11.6-1.62-8.14-2.43-12.21-4.04-20.35 1.51-.3 2.26-.44 3.78-.72ZM85.6 292.5c.14 1.36-.23 2.57-1.09 3.64-.86 1.07-1.97 1.68-3.32 1.85-1.97.24-2.95.37-4.92.65-1.17-8.22-1.76-12.33-2.93-20.54 2.13-.3 3.19-.44 5.32-.71 1.48-.18 2.8.16 3.93 1.01 1.13.85 1.76 1.96 1.9 3.31.44 4.31.66 6.47 1.11 10.78Zm-6.61 2.65c.76-.1 1.15-.15 1.91-.24.5-.06.91-.29 1.21-.69.31-.4.43-.84.38-1.32-.5-4.31-.74-6.47-1.24-10.78a1.71 1.71 0 0 0-.7-1.2c-.41-.31-.88-.43-1.4-.37l-2.02.25c.74 5.74 1.12 8.6 1.86 14.34Zm14.85 1.84c-1.38.1-2.59-.28-3.64-1.16-1.05-.87-1.65-1.99-1.77-3.35-.59-6.39-.88-9.58-1.46-15.97 1.33-.12 2-.18 3.33-.28.5 6.38.76 9.57 1.26 15.95.04.49.25.9.64 1.22.39.32.83.46 1.34.42.51-.04.92-.24 1.25-.61.33-.37.48-.8.45-1.3-.41-6.39-.62-9.58-1.03-15.97 1.42-.09 2.13-.13 3.55-.21.33 6.41.5 9.61.83 16.01.07 1.39-.36 2.58-1.29 3.58s-2.07 1.55-3.44 1.65Zm17.98-6.03c.02 1.44-.36 2.68-1.14 3.71-.51.7-1.23 1.19-2.16 1.49-.5.16-1.08.25-1.74.26-1.23.02-2.26-.26-3.09-.83-.69-.48-1.26-1.13-1.69-1.97-.43-.84-.71-1.81-.82-2.91 1.22-.14 1.83-.2 3.06-.32.17 1.2.53 2.07 1.06 2.6.39.4.84.58 1.33.55.69-.04 1.24-.38 1.65-1.04.21-.32.31-.78.3-1.38-.01-.86-.43-1.77-1.25-2.55-.61-.58-1.64-1.43-2.96-2.57-1.11-.96-1.93-1.85-2.41-2.62-.53-.86-.81-1.84-.85-2.88-.08-1.89.55-3.35 1.9-4.36.83-.61 1.88-.94 3.15-.96 1.22-.03 2.26.21 3.13.7.68.38 1.22.92 1.63 1.61.41.69.66 1.49.74 2.4-1.28.22-1.92.33-3.2.57-.1-.85-.37-1.51-.81-1.97-.31-.34-.76-.5-1.35-.49-.62.01-1.08.28-1.39.79-.25.41-.37.93-.35 1.53.03.95.49 1.9 1.37 2.86.34.37.84.8 1.49 1.3.78.59 1.29 1.01 1.53 1.25.82.76 1.44 1.52 1.88 2.27.21.35.37.68.5.98.31.74.47 1.4.48 1.98Zm5.9-12.37c-1.43-.03-2.15-.04-3.58-.05.01-1.26.02-1.89.03-3.14 4.26.04 6.39.1 10.64.3l-.15 3.14c-1.43-.07-2.14-.1-3.56-.15l-.6 17.58c-1.26-.04-1.89-.06-3.15-.09.15-7.03.23-10.55.38-17.58Zm15.19-2.39c1.9.15 3.25.75 4.04 1.79.7.91.97 2.11.82 3.6l-.29 3c-.14 1.46-.85 2.64-2.1 3.54.64 3.69.94 5.54 1.51 9.24-1.36-.14-2.04-.2-3.39-.32-.49-3.18-.75-4.77-1.29-7.94-.09 0-.19-.01-.29-.02-.75-.06-1.12-.09-1.87-.14l-.55 7.79c-1.26-.09-1.89-.13-3.15-.2.48-8.28.72-12.42 1.19-20.7 2.15.12 3.22.2 5.37.36Zm1.61 5.14c.1-1.2-.49-1.85-1.77-1.95l-2.03-.15c-.19 2.65-.28 3.97-.47 6.62.79.06 1.19.08 1.98.15.52.04.98-.1 1.37-.42.39-.32.61-.73.66-1.22.1-1.21.15-1.81.26-3.02Zm8.19 16.68c-1.25-.15-1.88-.23-3.13-.37.91-8.24 1.37-12.36 2.28-20.61 1.36.15 2.04.23 3.39.4-1.02 8.23-1.52 12.35-2.54 20.58Zm2.8.36c1.11-8.23 1.66-12.34 2.77-20.56 3.86.52 5.78.81 9.62 1.47-.21 1.24-.32 1.86-.53 3.1-2.46-.42-3.7-.62-6.16-.98-.33 2.24-.5 3.36-.83 5.6 1.77.26 2.65.4 4.41.69-.2 1.24-.31 1.86-.51 3.1-1.74-.29-2.61-.42-4.36-.68l-.83 5.6c2.34.34 3.5.53 5.83.93-.21 1.24-.32 1.86-.53 3.1-3.55-.61-5.33-.88-8.89-1.36Zm22.41-1.23c-.29 1.41-.94 2.54-1.93 3.37-.65.57-1.47.89-2.44.98-.52.05-1.11 0-1.77-.13-1.21-.25-2.16-.75-2.85-1.49-.57-.61-.99-1.38-1.23-2.29-.24-.91-.3-1.92-.17-3.02 1.23.13 1.84.2 3.07.35-.09 1.21.07 2.14.47 2.77.3.47.69.75 1.18.83.69.11 1.3-.1 1.85-.65.28-.27.48-.7.6-1.28.18-.84-.03-1.82-.67-2.76-.47-.7-1.3-1.76-2.34-3.15-.88-1.18-1.49-2.23-1.79-3.08-.33-.96-.39-1.97-.21-3 .34-1.86 1.27-3.15 2.81-3.84.95-.42 2.05-.5 3.3-.25 1.2.24 2.17.7 2.92 1.37.58.52 1 1.16 1.25 1.93.26.77.32 1.6.21 2.5-1.31-.07-1.96-.1-3.27-.15.08-.85-.04-1.55-.36-2.1-.24-.4-.64-.66-1.22-.77-.61-.12-1.12.04-1.54.47-.33.35-.56.82-.68 1.42-.18.93.06 1.96.72 3.09.25.43.65.96 1.18 1.59.63.74 1.04 1.27 1.23 1.56.64.92 1.09 1.8 1.35 2.63.13.39.22.74.28 1.06.14.79.16 1.47.04 2.04Z" class="cls-3"/><path d="M104.66 130.76c-1.97-4.68-1.52-9.15-.17-13.93l2.71 1.83-2.96-9.99c-1.12.15-4.24.55-9.07.99l2.45 2.01c-1.36 7.23 1.78 14.75 7.03 19.08Zm-1.65-31.29c4.99.93 8.47 3.77 11.72 7.54l-3.02 1.26 9.96 3.03c.49-1.01 1.88-3.84 4.17-8.11l-3.03.94c-5.28-5.12-13.29-6.64-19.79-4.65Zm27.01 15.59c-3.47 3.7-7.74 5.11-12.66 5.81l.57-3.22-7.92 6.76c.59.96 2.22 3.65 4.59 7.89l.84-3.06c7.16-1.69 12.76-7.62 14.58-14.17Z" class="cls-1"/></g></svg>